# Blender v2.72 (sub 0) OBJ File: 'barracksbuilding1.blend'
# www.blender.org
mtllib barracksbuilding1.mtl
o Cube_Cube.001
v -17.799999 0.000000 18.200001
v -17.799999 0.000000 17.799999
v 7.600000 0.000000 17.799999
v 7.600000 0.000000 18.200001
v -17.799999 17.000000 18.200001
v -17.799999 17.000000 17.799999
v 7.600000 17.000000 17.799999
v 7.600000 17.000000 18.200001
v -18.200001 0.000000 17.799999
v -18.200001 0.000000 -17.799999
v -17.799999 0.000000 -17.799999
v -17.799999 0.000000 17.799999
v -18.200001 17.000000 17.799999
v -18.200001 17.000000 -17.799999
v -17.799999 17.000000 -17.799999
v -17.799999 17.000000 17.799999
v -17.799999 0.000000 -17.799999
v -17.799999 0.000000 -18.200001
v 7.600000 0.000000 -18.200001
v 7.600000 0.000000 -17.799999
v -17.799999 17.000000 -17.799999
v -17.799999 17.000000 -18.200001
v 7.600000 17.000000 -18.200001
v 7.600000 17.000000 -17.799999
v 7.599999 0.000000 17.800003
v 7.599999 0.000000 16.400002
v 8.000000 0.000000 16.400002
v 8.000000 0.000000 17.800003
v 7.599999 17.000000 17.800003
v 7.599999 17.000000 16.400002
v 8.000000 17.000000 16.400002
v 8.000000 17.000000 17.800003
v 7.600000 0.000000 -16.400005
v 7.600000 0.000000 -17.800003
v 8.000000 0.000000 -17.800003
v 8.000000 0.000000 -16.400005
v 7.600000 17.000000 -16.400005
v 7.600000 17.000000 -17.800003
v 8.000000 17.000000 -17.800003
v 8.000000 17.000000 -16.400005
v -18.000000 0.000002 17.999996
v -18.200001 0.000002 17.799999
v -17.799999 0.000002 17.799999
v -17.799999 0.000002 18.199997
v -18.000000 17.000002 17.999996
v -18.200001 17.000002 17.799999
v -17.799999 17.000002 17.799999
v -17.799999 17.000002 18.199997
v -18.199999 -0.000001 -17.799997
v -17.999998 -0.000001 -17.999994
v -17.800001 -0.000001 -18.199995
v -17.800001 -0.000001 -17.799997
v -18.199999 17.000000 -17.799997
v -17.999998 17.000000 -17.999994
v -17.800001 17.000000 -18.199995
v -17.800001 17.000000 -17.799997
v 7.600002 0.000001 -17.799997
v 7.600002 0.000001 -18.199999
v 7.799997 0.000001 -17.999998
v 7.999997 0.000001 -17.799997
v 7.600002 17.000000 -17.799997
v 7.600002 17.000000 -18.199999
v 7.799997 17.000000 -17.999998
v 7.999997 17.000000 -17.799997
v 7.600003 0.000000 18.199997
v 7.600003 0.000000 17.799999
v 8.000000 0.000000 17.799999
v 7.800000 0.000000 17.999996
v 7.600003 17.000000 18.199997
v 7.600003 17.000000 17.799999
v 8.000000 17.000000 17.799999
v 7.800000 17.000000 17.999996
v 7.600000 15.000000 16.400002
v 7.600000 15.000000 -16.399998
v 8.000000 15.000000 -16.399998
v 8.000000 15.000000 16.400002
v 7.600000 17.000000 16.400002
v 7.600000 17.000000 -16.399998
v 8.000000 17.000000 -16.399998
v 8.000000 17.000000 16.400002
v -18.200003 17.000002 17.799999
v 7.600000 17.000002 -18.200001
v 8.000001 17.000002 -17.799999
v 7.600001 17.000002 18.200001
v -18.200003 17.400003 17.799999
v 7.600000 17.400003 -18.200001
v 8.000001 17.400003 -17.799999
v 7.600001 17.400003 18.200001
v 8.000001 17.400003 17.800003
v 8.000001 17.000002 17.800003
v -17.800001 17.400003 18.200001
v -17.800003 17.000002 18.200001
v -17.799999 17.400003 -18.200001
v -17.799999 17.000002 -18.200001
v -18.200001 17.000002 -17.799999
v -18.200001 17.400003 -17.799999
v 8.000001 23.400003 0.000002
v -18.200001 23.400003 0.000000
vt 0.000000 0.000000
vt 1.000000 0.000000
vt 1.000000 1.000000
vt 0.000000 1.000000
vt 0.500000 1.000000
vt 0.853553 0.853553
vt 1.000000 0.500000
vt 0.853553 0.146447
vt 0.500000 0.000000
vt 0.146447 0.146447
vt 0.000000 0.500000
vt 0.146447 0.853553
vt 0.975528 0.654508
vt 0.793893 0.095491
vt 0.206107 0.095492
vt 0.024472 0.654509
vt 0.933013 0.750000
vt 0.933013 0.250000
vt 0.066987 0.250000
vt 0.066987 0.750000
vn -1.000000 0.000000 0.000000
vn 0.000000 0.000000 -1.000000
vn 1.000000 0.000000 0.000000
vn 0.000000 0.000000 1.000000
vn 0.000000 -1.000000 0.000000
vn 0.000000 1.000000 0.000000
vn -0.707100 0.000000 0.707100
vn -0.707100 0.000000 -0.707100
vn 0.707100 0.000000 -0.707100
vn 0.707100 0.000000 0.707100
vn 0.000000 0.949700 -0.313200
vn -0.000000 0.949700 0.313200
usemtl None
s off
f 5/1/1 6/2/1 2/3/1 1/4/1
f 6/1/2 7/2/2 3/3/2 2/4/2
f 7/1/3 8/2/3 4/3/3 3/4/3
f 8/1/4 5/2/4 1/3/4 4/4/4
f 1/1/5 2/2/5 3/3/5 4/4/5
f 8/1/6 7/2/6 6/3/6 5/4/6
f 13/1/1 14/2/1 10/3/1 9/4/1
f 14/1/2 15/2/2 11/3/2 10/4/2
f 15/1/3 16/2/3 12/3/3 11/4/3
f 16/1/4 13/2/4 9/3/4 12/4/4
f 9/1/5 10/2/5 11/3/5 12/4/5
f 16/1/6 15/2/6 14/3/6 13/4/6
f 21/1/1 22/2/1 18/3/1 17/4/1
f 22/1/2 23/2/2 19/3/2 18/4/2
f 23/1/3 24/2/3 20/3/3 19/4/3
f 24/1/4 21/2/4 17/3/4 20/4/4
f 17/1/5 18/2/5 19/3/5 20/4/5
f 24/1/6 23/2/6 22/3/6 21/4/6
f 29/1/1 30/2/1 26/3/1 25/4/1
f 30/1/2 31/2/2 27/3/2 26/4/2
f 31/1/3 32/2/3 28/3/3 27/4/3
f 32/1/4 29/2/4 25/3/4 28/4/4
f 25/1/5 26/2/5 27/3/5 28/4/5
f 32/1/6 31/2/6 30/3/6 29/4/6
f 37/1/1 38/2/1 34/3/1 33/4/1
f 38/1/2 39/2/2 35/3/2 34/4/2
f 39/1/3 40/2/3 36/3/3 35/4/3
f 40/1/4 37/2/4 33/3/4 36/4/4
f 33/1/5 34/2/5 35/3/5 36/4/5
f 40/1/6 39/2/6 38/3/6 37/4/6
f 45/1/7 46/2/7 42/3/7 41/4/7
f 46/1/2 47/2/2 43/3/2 42/4/2
f 47/1/3 48/2/3 44/3/3 43/4/3
f 48/1/7 45/2/7 41/3/7 44/4/7
f 41/1/5 42/2/5 43/3/5 44/4/5
f 48/1/6 47/2/6 46/3/6 45/4/6
f 53/1/8 54/2/8 50/3/8 49/4/8
f 54/1/8 55/2/8 51/3/8 50/4/8
f 55/1/3 56/2/3 52/3/3 51/4/3
f 56/1/4 53/2/4 49/3/4 52/4/4
f 49/1/5 50/2/5 51/3/5 52/4/5
f 56/1/6 55/2/6 54/3/6 53/4/6
f 61/1/1 62/2/1 58/3/1 57/4/1
f 62/1/9 63/2/9 59/3/9 58/4/9
f 63/1/9 64/2/9 60/3/9 59/4/9
f 64/1/4 61/2/4 57/3/4 60/4/4
f 57/1/5 58/2/5 59/3/5 60/4/5
f 64/1/6 63/2/6 62/3/6 61/4/6
f 69/1/1 70/2/1 66/3/1 65/4/1
f 70/1/2 71/2/2 67/3/2 66/4/2
f 71/1/10 72/2/10 68/3/10 67/4/10
f 72/1/10 69/2/10 65/3/10 68/4/10
f 65/1/5 66/2/5 67/3/5 68/4/5
f 72/1/6 71/2/6 70/3/6 69/4/6
f 77/1/1 78/2/1 74/3/1 73/4/1
f 78/1/2 79/2/2 75/3/2 74/4/2
f 79/1/3 80/2/3 76/3/3 75/4/3
f 80/1/4 77/2/4 73/3/4 76/4/4
f 73/1/5 74/2/5 75/3/5 76/4/5
f 80/1/6 79/2/6 78/3/6 77/4/6
f 93/1/2 86/2/2 82/3/2 94/4/2
f 86/1/9 87/2/9 83/3/9 82/4/9
f 89/1/10 88/2/10 84/3/10 90/4/10
f 91/1/7 85/2/7 81/3/7 92/4/7
f 81/5/5 95/6/5 94/7/5 82/8/5 83/9/5 90/10/5 84/11/5 92/12/5
f 83/5/3 87/13/3 97/14/3 89/15/3 90/16/3
f 88/1/4 91/2/4 92/3/4 84/4/4
f 96/1/8 93/2/8 94/3/8 95/4/8
f 81/5/1 85/13/1 98/14/1 96/15/1 95/16/1
f 98/5/11 97/17/11 87/18/11 86/9/11 93/19/11 96/20/11
f 88/5/12 89/17/12 97/18/12 98/9/12 85/19/12 91/20/12
